<?xml version="1.0" encoding="UTF-8" standalone="no"?>
<!DOCTYPE svg PUBLIC "-//W3C//DTD SVG 1.1//EN"
 "http://www.w3.org/Graphics/SVG/1.1/DTD/svg11.dtd">
<!-- Generated by graphviz version 3.0.0 (20220226.1711)
 -->
<!-- Title: dependencies Pages: 1 -->
<svg width="246pt" height="247pt"
 viewBox="0.00 0.00 246.00 246.80" xmlns="http://www.w3.org/2000/svg" xmlns:xlink="http://www.w3.org/1999/xlink">
<g id="graph0" class="graph" transform="scale(1 1) rotate(0) translate(4 242.8)">
<title>dependencies</title>
<polygon fill="white" stroke="transparent" points="-4,4 -4,-242.8 242,-242.8 242,4 -4,4"/>
<text text-anchor="middle" x="119" y="-8.2" font-family="sans-serif" font-size="14.00">dependencies</text>
<g id="clust1" class="cluster">
<title>cluster_RefreshTokenModule</title>
<polygon fill="none" stroke="black" stroke-dasharray="1,5" points="8,-32.8 8,-230.8 230,-230.8 230,-32.8 8,-32.8"/>
</g>
<g id="clust6" class="cluster">
<title>cluster_RefreshTokenModule_providers</title>
<polygon fill="none" stroke="black" points="16,-40.8 16,-92.8 222,-92.8 222,-40.8 16,-40.8"/>
</g>
<g id="clust4" class="cluster">
<title>cluster_RefreshTokenModule_exports</title>
<polygon fill="none" stroke="black" points="41,-170.8 41,-222.8 197,-222.8 197,-170.8 41,-170.8"/>
</g>
<!-- RefreshTokenService  -->
<g id="node1" class="node">
<title>RefreshTokenService </title>
<polygon fill="#fb8072" stroke="black" points="189.28,-214.8 48.72,-214.8 48.72,-178.8 189.28,-178.8 189.28,-214.8"/>
<text text-anchor="middle" x="119" y="-192.6" font-family="Times,serif" font-size="14.00">RefreshTokenService </text>
</g>
<!-- RefreshTokenModule -->
<g id="node2" class="node">
<title>RefreshTokenModule</title>
<polygon fill="#8dd3c7" stroke="black" points="188.36,-149.8 185.36,-153.8 164.36,-153.8 161.36,-149.8 49.64,-149.8 49.64,-113.8 188.36,-113.8 188.36,-149.8"/>
<text text-anchor="middle" x="119" y="-127.6" font-family="Times,serif" font-size="14.00">RefreshTokenModule</text>
</g>
<!-- RefreshTokenModule&#45;&gt;RefreshTokenService  -->
<g id="edge1" class="edge">
<title>RefreshTokenModule&#45;&gt;RefreshTokenService </title>
<path fill="none" stroke="black" stroke-dasharray="5,2" d="M119,-149.91C119,-149.91 119,-168.79 119,-168.79"/>
<polygon fill="black" stroke="black" points="115.5,-168.79 119,-178.79 122.5,-168.79 115.5,-168.79"/>
</g>
<!-- RefreshTokenService -->
<g id="node3" class="node">
<title>RefreshTokenService</title>
<ellipse fill="#fdb462" stroke="black" cx="119" cy="-66.8" rx="94.89" ry="18"/>
<text text-anchor="middle" x="119" y="-62.6" font-family="Times,serif" font-size="14.00">RefreshTokenService</text>
</g>
<!-- RefreshTokenService&#45;&gt;RefreshTokenModule -->
<g id="edge2" class="edge">
<title>RefreshTokenService&#45;&gt;RefreshTokenModule</title>
<path fill="none" stroke="black" d="M119,-84.91C119,-84.91 119,-103.79 119,-103.79"/>
<polygon fill="black" stroke="black" points="115.5,-103.79 119,-113.79 122.5,-103.79 115.5,-103.79"/>
</g>
</g>
</svg>
