<?xml version="1.0" encoding="UTF-8" standalone="no"?>
<!DOCTYPE svg PUBLIC "-//W3C//DTD SVG 1.1//EN"
 "http://www.w3.org/Graphics/SVG/1.1/DTD/svg11.dtd">
<!-- Generated by graphviz version 3.0.0 (20220226.1711)
 -->
<!-- Title: dependencies Pages: 1 -->
<svg width="569pt" height="174pt"
 viewBox="0.00 0.00 569.00 173.80" xmlns="http://www.w3.org/2000/svg" xmlns:xlink="http://www.w3.org/1999/xlink">
<g id="graph0" class="graph" transform="scale(1 1) rotate(0) translate(4 169.8)">
<title>dependencies</title>
<polygon fill="white" stroke="transparent" points="-4,4 -4,-169.8 565,-169.8 565,4 -4,4"/>
<text text-anchor="middle" x="280.5" y="-8.2" font-family="sans-serif" font-size="14.00">dependencies</text>
<g id="clust1" class="cluster">
<title>cluster_AppModule</title>
<polygon fill="none" stroke="black" stroke-dasharray="1,5" points="8,-32.8 8,-157.8 553,-157.8 553,-32.8 8,-32.8"/>
</g>
<g id="clust6" class="cluster">
<title>cluster_AppModule_providers</title>
<polygon fill="none" stroke="black" points="415,-40.8 415,-92.8 545,-92.8 545,-40.8 415,-40.8"/>
</g>
<g id="clust3" class="cluster">
<title>cluster_AppModule_imports</title>
<polygon fill="none" stroke="black" points="16,-40.8 16,-92.8 407,-92.8 407,-40.8 16,-40.8"/>
</g>
<!-- AuthenticationModule -->
<g id="node1" class="node">
<title>AuthenticationModule</title>
<polygon fill="#8dd3c7" stroke="black" points="399.25,-84.8 396.25,-88.8 375.25,-88.8 372.25,-84.8 256.75,-84.8 256.75,-48.8 399.25,-48.8 399.25,-84.8"/>
<text text-anchor="middle" x="328" y="-62.6" font-family="Times,serif" font-size="14.00">AuthenticationModule</text>
</g>
<!-- AppModule -->
<g id="node4" class="node">
<title>AppModule</title>
<polygon fill="#8dd3c7" stroke="black" points="296.66,-149.8 293.66,-153.8 272.66,-153.8 269.66,-149.8 213.34,-149.8 213.34,-113.8 296.66,-113.8 296.66,-149.8"/>
<text text-anchor="middle" x="255" y="-127.6" font-family="Times,serif" font-size="14.00">AppModule</text>
</g>
<!-- AuthenticationModule&#45;&gt;AppModule -->
<g id="edge1" class="edge">
<title>AuthenticationModule&#45;&gt;AppModule</title>
<path fill="none" stroke="black" d="M276.73,-84.91C276.73,-84.91 276.73,-103.79 276.73,-103.79"/>
<polygon fill="black" stroke="black" points="273.23,-103.79 276.73,-113.79 280.23,-103.79 273.23,-103.79"/>
</g>
<!-- DatabaseModule -->
<g id="node2" class="node">
<title>DatabaseModule</title>
<polygon fill="#8dd3c7" stroke="black" points="238.36,-84.8 235.36,-88.8 214.36,-88.8 211.36,-84.8 127.64,-84.8 127.64,-48.8 238.36,-48.8 238.36,-84.8"/>
<text text-anchor="middle" x="183" y="-62.6" font-family="Times,serif" font-size="14.00">DatabaseModule</text>
</g>
<!-- DatabaseModule&#45;&gt;AppModule -->
<g id="edge2" class="edge">
<title>DatabaseModule&#45;&gt;AppModule</title>
<path fill="none" stroke="black" d="M225.8,-84.91C225.8,-84.91 225.8,-103.79 225.8,-103.79"/>
<polygon fill="black" stroke="black" points="222.3,-103.79 225.8,-113.79 229.3,-103.79 222.3,-103.79"/>
</g>
<!-- UserModule -->
<g id="node3" class="node">
<title>UserModule</title>
<polygon fill="#8dd3c7" stroke="black" points="109.99,-84.8 106.99,-88.8 85.99,-88.8 82.99,-84.8 24.01,-84.8 24.01,-48.8 109.99,-48.8 109.99,-84.8"/>
<text text-anchor="middle" x="67" y="-62.6" font-family="Times,serif" font-size="14.00">UserModule</text>
</g>
<!-- UserModule&#45;&gt;AppModule -->
<g id="edge3" class="edge">
<title>UserModule&#45;&gt;AppModule</title>
<path fill="none" stroke="black" d="M67,-84.91C67,-104.14 67,-131.8 67,-131.8 67,-131.8 203.28,-131.8 203.28,-131.8"/>
<polygon fill="black" stroke="black" points="203.28,-135.3 213.28,-131.8 203.28,-128.3 203.28,-135.3"/>
</g>
<!-- AppService -->
<g id="node5" class="node">
<title>AppService</title>
<ellipse fill="#fdb462" stroke="black" cx="480" cy="-66.8" rx="56.75" ry="18"/>
<text text-anchor="middle" x="480" y="-62.6" font-family="Times,serif" font-size="14.00">AppService</text>
</g>
<!-- AppService&#45;&gt;AppModule -->
<g id="edge4" class="edge">
<title>AppService&#45;&gt;AppModule</title>
<path fill="none" stroke="black" d="M480,-84.91C480,-104.14 480,-131.8 480,-131.8 480,-131.8 306.79,-131.8 306.79,-131.8"/>
<polygon fill="black" stroke="black" points="306.79,-128.3 296.79,-131.8 306.79,-135.3 306.79,-128.3"/>
</g>
</g>
</svg>
