<?xml version="1.0" encoding="UTF-8" standalone="no"?>
<!DOCTYPE svg PUBLIC "-//W3C//DTD SVG 1.1//EN"
 "http://www.w3.org/Graphics/SVG/1.1/DTD/svg11.dtd">
<!-- Generated by graphviz version 3.0.0 (20220226.1711)
 -->
<!-- Title: dependencies Pages: 1 -->
<svg width="796pt" height="247pt"
 viewBox="0.00 0.00 796.00 246.80" xmlns="http://www.w3.org/2000/svg" xmlns:xlink="http://www.w3.org/1999/xlink">
<g id="graph0" class="graph" transform="scale(1 1) rotate(0) translate(4 242.8)">
<title>dependencies</title>
<polygon fill="white" stroke="transparent" points="-4,4 -4,-242.8 792,-242.8 792,4 -4,4"/>
<text text-anchor="middle" x="394" y="-8.2" font-family="sans-serif" font-size="14.00">dependencies</text>
<g id="clust1" class="cluster">
<title>cluster_AuthenticationModule</title>
<polygon fill="none" stroke="black" stroke-dasharray="1,5" points="8,-32.8 8,-230.8 780,-230.8 780,-32.8 8,-32.8"/>
</g>
<g id="clust3" class="cluster">
<title>cluster_AuthenticationModule_imports</title>
<polygon fill="none" stroke="black" points="514,-40.8 514,-92.8 772,-92.8 772,-40.8 514,-40.8"/>
</g>
<g id="clust4" class="cluster">
<title>cluster_AuthenticationModule_exports</title>
<polygon fill="none" stroke="black" points="321,-170.8 321,-222.8 481,-222.8 481,-170.8 321,-170.8"/>
</g>
<g id="clust6" class="cluster">
<title>cluster_AuthenticationModule_providers</title>
<polygon fill="none" stroke="black" points="16,-40.8 16,-92.8 506,-92.8 506,-40.8 16,-40.8"/>
</g>
<!-- RefreshTokenModule -->
<g id="node1" class="node">
<title>RefreshTokenModule</title>
<polygon fill="#8dd3c7" stroke="black" points="764.36,-84.8 761.36,-88.8 740.36,-88.8 737.36,-84.8 625.64,-84.8 625.64,-48.8 764.36,-48.8 764.36,-84.8"/>
<text text-anchor="middle" x="695" y="-62.6" font-family="Times,serif" font-size="14.00">RefreshTokenModule</text>
</g>
<!-- AuthenticationModule -->
<g id="node3" class="node">
<title>AuthenticationModule</title>
<polygon fill="#8dd3c7" stroke="black" points="472.25,-149.8 469.25,-153.8 448.25,-153.8 445.25,-149.8 329.75,-149.8 329.75,-113.8 472.25,-113.8 472.25,-149.8"/>
<text text-anchor="middle" x="401" y="-127.6" font-family="Times,serif" font-size="14.00">AuthenticationModule</text>
</g>
<!-- RefreshTokenModule&#45;&gt;AuthenticationModule -->
<g id="edge1" class="edge">
<title>RefreshTokenModule&#45;&gt;AuthenticationModule</title>
<path fill="none" stroke="black" d="M695,-85.08C695,-106.12 695,-137.8 695,-137.8 695,-137.8 482.54,-137.8 482.54,-137.8"/>
<polygon fill="black" stroke="black" points="482.54,-134.3 472.54,-137.8 482.54,-141.3 482.54,-134.3"/>
</g>
<!-- UserModule -->
<g id="node2" class="node">
<title>UserModule</title>
<polygon fill="#8dd3c7" stroke="black" points="607.99,-84.8 604.99,-88.8 583.99,-88.8 580.99,-84.8 522.01,-84.8 522.01,-48.8 607.99,-48.8 607.99,-84.8"/>
<text text-anchor="middle" x="565" y="-62.6" font-family="Times,serif" font-size="14.00">UserModule</text>
</g>
<!-- UserModule&#45;&gt;AuthenticationModule -->
<g id="edge2" class="edge">
<title>UserModule&#45;&gt;AuthenticationModule</title>
<path fill="none" stroke="black" d="M565,-84.82C565,-102.17 565,-125.8 565,-125.8 565,-125.8 482.46,-125.8 482.46,-125.8"/>
<polygon fill="black" stroke="black" points="482.46,-122.3 472.46,-125.8 482.46,-129.3 482.46,-122.3"/>
</g>
<!-- AuthenticationService  -->
<g id="node4" class="node">
<title>AuthenticationService </title>
<polygon fill="#fb8072" stroke="black" points="473.18,-214.8 328.82,-214.8 328.82,-178.8 473.18,-178.8 473.18,-214.8"/>
<text text-anchor="middle" x="401" y="-192.6" font-family="Times,serif" font-size="14.00">AuthenticationService </text>
</g>
<!-- AuthenticationModule&#45;&gt;AuthenticationService  -->
<g id="edge3" class="edge">
<title>AuthenticationModule&#45;&gt;AuthenticationService </title>
<path fill="none" stroke="black" stroke-dasharray="5,2" d="M401,-149.91C401,-149.91 401,-168.79 401,-168.79"/>
<polygon fill="black" stroke="black" points="397.5,-168.79 401,-178.79 404.5,-168.79 397.5,-168.79"/>
</g>
<!-- AuthenticationService -->
<g id="node5" class="node">
<title>AuthenticationService</title>
<ellipse fill="#fdb462" stroke="black" cx="401" cy="-66.8" rx="97.27" ry="18"/>
<text text-anchor="middle" x="401" y="-62.6" font-family="Times,serif" font-size="14.00">AuthenticationService</text>
</g>
<!-- AuthenticationService&#45;&gt;AuthenticationModule -->
<g id="edge4" class="edge">
<title>AuthenticationService&#45;&gt;AuthenticationModule</title>
<path fill="none" stroke="black" d="M401,-84.91C401,-84.91 401,-103.79 401,-103.79"/>
<polygon fill="black" stroke="black" points="397.5,-103.79 401,-113.79 404.5,-103.79 397.5,-103.79"/>
</g>
<!-- JwtStrategy -->
<g id="node6" class="node">
<title>JwtStrategy</title>
<ellipse fill="#fdb462" stroke="black" cx="229" cy="-66.8" rx="56.77" ry="18"/>
<text text-anchor="middle" x="229" y="-62.6" font-family="Times,serif" font-size="14.00">JwtStrategy</text>
</g>
<!-- JwtStrategy&#45;&gt;AuthenticationModule -->
<g id="edge5" class="edge">
<title>JwtStrategy&#45;&gt;AuthenticationModule</title>
<path fill="none" stroke="black" d="M229,-84.82C229,-102.17 229,-125.8 229,-125.8 229,-125.8 319.55,-125.8 319.55,-125.8"/>
<polygon fill="black" stroke="black" points="319.55,-129.3 329.55,-125.8 319.55,-122.3 319.55,-129.3"/>
</g>
<!-- LocalStrategy -->
<g id="node7" class="node">
<title>LocalStrategy</title>
<ellipse fill="#fdb462" stroke="black" cx="89" cy="-66.8" rx="65.4" ry="18"/>
<text text-anchor="middle" x="89" y="-62.6" font-family="Times,serif" font-size="14.00">LocalStrategy</text>
</g>
<!-- LocalStrategy&#45;&gt;AuthenticationModule -->
<g id="edge6" class="edge">
<title>LocalStrategy&#45;&gt;AuthenticationModule</title>
<path fill="none" stroke="black" d="M89,-85.08C89,-106.12 89,-137.8 89,-137.8 89,-137.8 319.42,-137.8 319.42,-137.8"/>
<polygon fill="black" stroke="black" points="319.42,-141.3 329.42,-137.8 319.42,-134.3 319.42,-141.3"/>
</g>
</g>
</svg>
