<?xml version="1.0" encoding="UTF-8" standalone="no"?>
<!DOCTYPE svg PUBLIC "-//W3C//DTD SVG 1.1//EN"
 "http://www.w3.org/Graphics/SVG/1.1/DTD/svg11.dtd">
<!-- Generated by graphviz version 3.0.0 (20220226.1711)
 -->
<!-- Title: dependencies Pages: 1 -->
<svg width="900pt" height="247pt"
 viewBox="0.00 0.00 900.00 246.80" xmlns="http://www.w3.org/2000/svg" xmlns:xlink="http://www.w3.org/1999/xlink">
<g id="graph0" class="graph" transform="scale(1 1) rotate(0) translate(4 242.8)">
<title>dependencies</title>
<polygon fill="white" stroke="transparent" points="-4,4 -4,-242.8 896,-242.8 896,4 -4,4"/>
<text text-anchor="middle" x="446" y="-8.2" font-family="sans-serif" font-size="14.00">dependencies</text>
<g id="clust1" class="cluster">
<title>cluster_AuthenticationModule</title>
<polygon fill="none" stroke="black" stroke-dasharray="1,5" points="8,-32.8 8,-230.8 884,-230.8 884,-32.8 8,-32.8"/>
</g>
<g id="clust3" class="cluster">
<title>cluster_AuthenticationModule_imports</title>
<polygon fill="none" stroke="black" points="514,-40.8 514,-92.8 876,-92.8 876,-40.8 514,-40.8"/>
</g>
<g id="clust4" class="cluster">
<title>cluster_AuthenticationModule_exports</title>
<polygon fill="none" stroke="black" points="403,-170.8 403,-222.8 563,-222.8 563,-170.8 403,-170.8"/>
</g>
<g id="clust6" class="cluster">
<title>cluster_AuthenticationModule_providers</title>
<polygon fill="none" stroke="black" points="16,-40.8 16,-92.8 506,-92.8 506,-40.8 16,-40.8"/>
</g>
<!-- RefreshTokenModule -->
<g id="node1" class="node">
<title>RefreshTokenModule</title>
<polygon fill="#8dd3c7" stroke="black" points="868.36,-84.8 865.36,-88.8 844.36,-88.8 841.36,-84.8 729.64,-84.8 729.64,-48.8 868.36,-48.8 868.36,-84.8"/>
<text text-anchor="middle" x="799" y="-62.6" font-family="Times,serif" font-size="14.00">RefreshTokenModule</text>
</g>
<!-- AuthenticationModule -->
<g id="node4" class="node">
<title>AuthenticationModule</title>
<polygon fill="#8dd3c7" stroke="black" points="554.25,-149.8 551.25,-153.8 530.25,-153.8 527.25,-149.8 411.75,-149.8 411.75,-113.8 554.25,-113.8 554.25,-149.8"/>
<text text-anchor="middle" x="483" y="-127.6" font-family="Times,serif" font-size="14.00">AuthenticationModule</text>
</g>
<!-- RefreshTokenModule&#45;&gt;AuthenticationModule -->
<g id="edge1" class="edge">
<title>RefreshTokenModule&#45;&gt;AuthenticationModule</title>
<path fill="none" stroke="black" d="M799,-85.08C799,-106.12 799,-137.8 799,-137.8 799,-137.8 564.31,-137.8 564.31,-137.8"/>
<polygon fill="black" stroke="black" points="564.31,-134.3 554.31,-137.8 564.31,-141.3 564.31,-134.3"/>
</g>
<!-- RoleModule -->
<g id="node2" class="node">
<title>RoleModule</title>
<polygon fill="#8dd3c7" stroke="black" points="711.99,-84.8 708.99,-88.8 687.99,-88.8 684.99,-84.8 626.01,-84.8 626.01,-48.8 711.99,-48.8 711.99,-84.8"/>
<text text-anchor="middle" x="669" y="-62.6" font-family="Times,serif" font-size="14.00">RoleModule</text>
</g>
<!-- RoleModule&#45;&gt;AuthenticationModule -->
<g id="edge2" class="edge">
<title>RoleModule&#45;&gt;AuthenticationModule</title>
<path fill="none" stroke="black" d="M669,-84.82C669,-102.17 669,-125.8 669,-125.8 669,-125.8 564.38,-125.8 564.38,-125.8"/>
<polygon fill="black" stroke="black" points="564.38,-122.3 554.38,-125.8 564.38,-129.3 564.38,-122.3"/>
</g>
<!-- UserModule -->
<g id="node3" class="node">
<title>UserModule</title>
<polygon fill="#8dd3c7" stroke="black" points="607.99,-84.8 604.99,-88.8 583.99,-88.8 580.99,-84.8 522.01,-84.8 522.01,-48.8 607.99,-48.8 607.99,-84.8"/>
<text text-anchor="middle" x="565" y="-62.6" font-family="Times,serif" font-size="14.00">UserModule</text>
</g>
<!-- UserModule&#45;&gt;AuthenticationModule -->
<g id="edge3" class="edge">
<title>UserModule&#45;&gt;AuthenticationModule</title>
<path fill="none" stroke="black" d="M538.19,-84.91C538.19,-84.91 538.19,-103.79 538.19,-103.79"/>
<polygon fill="black" stroke="black" points="534.69,-103.79 538.19,-113.79 541.69,-103.79 534.69,-103.79"/>
</g>
<!-- AuthenticationService  -->
<g id="node5" class="node">
<title>AuthenticationService </title>
<polygon fill="#fb8072" stroke="black" points="555.18,-214.8 410.82,-214.8 410.82,-178.8 555.18,-178.8 555.18,-214.8"/>
<text text-anchor="middle" x="483" y="-192.6" font-family="Times,serif" font-size="14.00">AuthenticationService </text>
</g>
<!-- AuthenticationModule&#45;&gt;AuthenticationService  -->
<g id="edge4" class="edge">
<title>AuthenticationModule&#45;&gt;AuthenticationService </title>
<path fill="none" stroke="black" stroke-dasharray="5,2" d="M483,-149.91C483,-149.91 483,-168.79 483,-168.79"/>
<polygon fill="black" stroke="black" points="479.5,-168.79 483,-178.79 486.5,-168.79 479.5,-168.79"/>
</g>
<!-- AuthenticationService -->
<g id="node6" class="node">
<title>AuthenticationService</title>
<ellipse fill="#fdb462" stroke="black" cx="401" cy="-66.8" rx="97.27" ry="18"/>
<text text-anchor="middle" x="401" y="-62.6" font-family="Times,serif" font-size="14.00">AuthenticationService</text>
</g>
<!-- AuthenticationService&#45;&gt;AuthenticationModule -->
<g id="edge5" class="edge">
<title>AuthenticationService&#45;&gt;AuthenticationModule</title>
<path fill="none" stroke="black" d="M455,-81.88C455,-81.88 455,-103.56 455,-103.56"/>
<polygon fill="black" stroke="black" points="451.5,-103.56 455,-113.56 458.5,-103.56 451.5,-103.56"/>
</g>
<!-- JwtStrategy -->
<g id="node7" class="node">
<title>JwtStrategy</title>
<ellipse fill="#fdb462" stroke="black" cx="229" cy="-66.8" rx="56.77" ry="18"/>
<text text-anchor="middle" x="229" y="-62.6" font-family="Times,serif" font-size="14.00">JwtStrategy</text>
</g>
<!-- JwtStrategy&#45;&gt;AuthenticationModule -->
<g id="edge6" class="edge">
<title>JwtStrategy&#45;&gt;AuthenticationModule</title>
<path fill="none" stroke="black" d="M229,-84.82C229,-102.17 229,-125.8 229,-125.8 229,-125.8 401.57,-125.8 401.57,-125.8"/>
<polygon fill="black" stroke="black" points="401.57,-129.3 411.57,-125.8 401.57,-122.3 401.57,-129.3"/>
</g>
<!-- LocalStrategy -->
<g id="node8" class="node">
<title>LocalStrategy</title>
<ellipse fill="#fdb462" stroke="black" cx="89" cy="-66.8" rx="65.4" ry="18"/>
<text text-anchor="middle" x="89" y="-62.6" font-family="Times,serif" font-size="14.00">LocalStrategy</text>
</g>
<!-- LocalStrategy&#45;&gt;AuthenticationModule -->
<g id="edge7" class="edge">
<title>LocalStrategy&#45;&gt;AuthenticationModule</title>
<path fill="none" stroke="black" d="M89,-85.08C89,-106.12 89,-137.8 89,-137.8 89,-137.8 401.65,-137.8 401.65,-137.8"/>
<polygon fill="black" stroke="black" points="401.65,-141.3 411.65,-137.8 401.65,-134.3 401.65,-141.3"/>
</g>
</g>
</svg>
